{
  "title" : "",
  "description" : "",
  "author" : "",
  "targetLoudness" : -18.0,
  "shouldApplyLoudnessNormalization" : true,
  "videoFormatFrameRate" : 30,
  "audioFormatSampleRate" : 44100,
  "width" : 1920.0,
  "height" : 1080.0,
  "version" : "3.0",
  "editRate" : 30,
  "authoringClientName" :  {
    "name" : "Camtasia",
    "platform" : "Windows",
    "version" : "19.0"
  },
  "sourceBin" : [
    {
      "id" : 1,
      "src" : "C:\\Users\\Bhavya\\Documents\\Camtasia\\Rec 03-04-21_003.trec",
      "rect" : [0, 0, 1920, 1080],
      "lastMod" : "20210304T060848",
      "sourceTracks" : [
        {
          "range" : [0, 370],
          "type" : 0,
          "editRate" : 30,
          "trackRect" : [0, 0, 1920, 1080],
          "sampleRate" : 29,
          "bitDepth" : 0,
          "numChannels" : 0,
          "integratedLUFS" : 100.0,
          "peakLevel" : -1.0,
          "metaData" : "2b7b6a00-7a1f-11e2-83d0-0017f200be7f;2b7b6aef-7a1f-11e2-83d0-0017f200be7f;2b7b6af0-7a1f-11e2-83d0-0017f200be7f;2b7b6af1-7a1f-11e2-83d0-0017f200be7f;2b7b6af2-7a1f-11e2-83d0-0017f200be7f;2b7b6af3-7a1f-11e2-83d0-0017f200be7f;2b7b6af5-7a1f-11e2-83d0-0017f200be7f;2b7b6af6-7a1f-11e2-83d0-0017f200be7f;2b7b6af7-7a1f-11e2-83d0-0017f200be7f;2b7b6af8-7a1f-11e2-83d0-0017f200be7f;2b7b6af9-7a1f-11e2-83d0-0017f200be7f;2b7b6afa-7a1f-11e2-83d0-0017f200be7f;"
        },
        {
          "range" : [0, 530432],
          "type" : 2,
          "editRate" : 44100,
          "trackRect" : [0, 0, 0, 0],
          "sampleRate" : 44100,
          "bitDepth" : 16,
          "numChannels" : 2,
          "integratedLUFS" : -69.4188919307037,
          "peakLevel" : 0.00115966796875,
          "metaData" : ""
        },
        {
          "range" : [0, 543744],
          "type" : 2,
          "editRate" : 44100,
          "trackRect" : [0, 0, 0, 0],
          "sampleRate" : 44100,
          "bitDepth" : 16,
          "numChannels" : 2,
          "integratedLUFS" : -1.79769313486232e+308,
          "peakLevel" : 0.0,
          "metaData" : ""
        }
      ]
    },
    {
      "id" : 2,
      "src" : "C:\\Users\\Bhavya\\Documents\\Camtasia\\Rec 03-04-21_004.trec",
      "rect" : [0, 0, 1920, 1080],
      "lastMod" : "20210304T061102",
      "sourceTracks" : [
        {
          "range" : [0, 1605],
          "type" : 0,
          "editRate" : 30,
          "trackRect" : [0, 0, 1920, 1080],
          "sampleRate" : 29,
          "bitDepth" : 0,
          "numChannels" : 0,
          "integratedLUFS" : 100.0,
          "peakLevel" : -1.0,
          "metaData" : "2b7b6a00-7a1f-11e2-83d0-0017f200be7f;2b7b6aef-7a1f-11e2-83d0-0017f200be7f;2b7b6af0-7a1f-11e2-83d0-0017f200be7f;2b7b6af1-7a1f-11e2-83d0-0017f200be7f;2b7b6af2-7a1f-11e2-83d0-0017f200be7f;2b7b6af3-7a1f-11e2-83d0-0017f200be7f;2b7b6af5-7a1f-11e2-83d0-0017f200be7f;2b7b6af6-7a1f-11e2-83d0-0017f200be7f;2b7b6af7-7a1f-11e2-83d0-0017f200be7f;2b7b6af8-7a1f-11e2-83d0-0017f200be7f;2b7b6af9-7a1f-11e2-83d0-0017f200be7f;2b7b6afa-7a1f-11e2-83d0-0017f200be7f;"
        }
      ]
    },
    {
      "id" : 3,
      "src" : "E:\\WordBias\\teaser.png",
      "rect" : [0, 0, 1361, 836],
      "lastMod" : "20210304T000107",
      "sourceTracks" : [
        {
          "range" : [0, 1],
          "type" : 1,
          "editRate" : 10000000,
          "trackRect" : [0, 0, 1361, 836],
          "sampleRate" : 0,
          "bitDepth" : 32,
          "numChannels" : 0,
          "integratedLUFS" : 100.0,
          "peakLevel" : -1.0,
          "metaData" : ""
        }
      ]
    },
    {
      "id" : 4,
      "src" : "E:\\WordBias\\video\\sound1.mp3",
      "rect" : [0, 0, 0, 0],
      "lastMod" : "20210304T085222",
      "sourceTracks" : [
        {
          "range" : [0, 104640000],
          "type" : 2,
          "editRate" : 10000000,
          "trackRect" : [0, 0, 0, 0],
          "sampleRate" : 24000,
          "bitDepth" : 0,
          "numChannels" : 1,
          "integratedLUFS" : -16.183263359791,
          "peakLevel" : 0.607889175415039,
          "metaData" : ""
        }
      ]
    },
    {
      "id" : 5,
      "src" : "E:\\WordBias\\video\\sound2.mp3",
      "rect" : [0, 0, 0, 0],
      "lastMod" : "20210304T085444",
      "sourceTracks" : [
        {
          "range" : [0, 91200000],
          "type" : 2,
          "editRate" : 10000000,
          "trackRect" : [0, 0, 0, 0],
          "sampleRate" : 24000,
          "bitDepth" : 0,
          "numChannels" : 1,
          "integratedLUFS" : -16.2329884350786,
          "peakLevel" : 0.680419683456421,
          "metaData" : ""
        }
      ]
    },
    {
      "id" : 6,
      "src" : "E:\\WordBias\\video\\bg_music.mp3",
      "rect" : [0, 0, 0, 0],
      "lastMod" : "20210304T100510",
      "sourceTracks" : [
        {
          "range" : [0, 2054791250],
          "type" : 2,
          "editRate" : 10000000,
          "trackRect" : [0, 0, 0, 0],
          "sampleRate" : 44100,
          "bitDepth" : 0,
          "numChannels" : 2,
          "integratedLUFS" : -20.6976832090996,
          "peakLevel" : 0.660939335823059,
          "metaData" : ""
        }
      ]
    },
    {
      "id" : 7,
      "src" : "C:\\Users\\Bhavya\\Documents\\Camtasia\\Rec 03-04-21_005.trec",
      "rect" : [0, 0, 1920, 1080],
      "lastMod" : "20210305T004015",
      "sourceTracks" : [
        {
          "range" : [0, 654],
          "type" : 0,
          "editRate" : 30,
          "trackRect" : [0, 0, 1920, 1080],
          "sampleRate" : 29,
          "bitDepth" : 0,
          "numChannels" : 0,
          "integratedLUFS" : 100.0,
          "peakLevel" : -1.0,
          "metaData" : "2b7b6a00-7a1f-11e2-83d0-0017f200be7f;2b7b6aef-7a1f-11e2-83d0-0017f200be7f;2b7b6af0-7a1f-11e2-83d0-0017f200be7f;2b7b6af1-7a1f-11e2-83d0-0017f200be7f;2b7b6af2-7a1f-11e2-83d0-0017f200be7f;2b7b6af3-7a1f-11e2-83d0-0017f200be7f;2b7b6af5-7a1f-11e2-83d0-0017f200be7f;2b7b6af6-7a1f-11e2-83d0-0017f200be7f;2b7b6af7-7a1f-11e2-83d0-0017f200be7f;2b7b6af8-7a1f-11e2-83d0-0017f200be7f;2b7b6af9-7a1f-11e2-83d0-0017f200be7f;2b7b6afa-7a1f-11e2-83d0-0017f200be7f;"
        }
      ]
    },
    {
      "id" : 8,
      "src" : "C:\\Users\\Bhavya\\Documents\\Camtasia\\Rec 03-04-21_006.trec",
      "rect" : [0, 0, 1920, 1080],
      "lastMod" : "20210305T005404",
      "sourceTracks" : [
        {
          "range" : [0, 531],
          "type" : 0,
          "editRate" : 30,
          "trackRect" : [0, 0, 1920, 1080],
          "sampleRate" : 29,
          "bitDepth" : 0,
          "numChannels" : 0,
          "integratedLUFS" : 100.0,
          "peakLevel" : -1.0,
          "metaData" : "2b7b6a00-7a1f-11e2-83d0-0017f200be7f;2b7b6aef-7a1f-11e2-83d0-0017f200be7f;2b7b6af0-7a1f-11e2-83d0-0017f200be7f;2b7b6af1-7a1f-11e2-83d0-0017f200be7f;2b7b6af2-7a1f-11e2-83d0-0017f200be7f;2b7b6af3-7a1f-11e2-83d0-0017f200be7f;2b7b6af5-7a1f-11e2-83d0-0017f200be7f;2b7b6af6-7a1f-11e2-83d0-0017f200be7f;2b7b6af7-7a1f-11e2-83d0-0017f200be7f;2b7b6af8-7a1f-11e2-83d0-0017f200be7f;2b7b6af9-7a1f-11e2-83d0-0017f200be7f;2b7b6afa-7a1f-11e2-83d0-0017f200be7f;"
        }
      ]
    },
    {
      "id" : 9,
      "src" : "E:\\WordBias\\video\\sound3.mp3",
      "rect" : [0, 0, 0, 0],
      "lastMod" : "20210305T012429",
      "sourceTracks" : [
        {
          "range" : [0, 94080000],
          "type" : 2,
          "editRate" : 10000000,
          "trackRect" : [0, 0, 0, 0],
          "sampleRate" : 24000,
          "bitDepth" : 0,
          "numChannels" : 1,
          "integratedLUFS" : -16.8689412102104,
          "peakLevel" : 0.584357082843781,
          "metaData" : ""
        }
      ]
    },
    {
      "id" : 10,
      "src" : "C:\\Users\\Bhavya\\Documents\\Camtasia\\Rec 03-04-21_009.trec",
      "rect" : [0, 0, 1920, 1080],
      "lastMod" : "20210305T015835",
      "sourceTracks" : [
        {
          "range" : [0, 1327],
          "type" : 0,
          "editRate" : 30,
          "trackRect" : [0, 0, 1920, 1080],
          "sampleRate" : 29,
          "bitDepth" : 0,
          "numChannels" : 0,
          "integratedLUFS" : 100.0,
          "peakLevel" : -1.0,
          "metaData" : "2b7b6a00-7a1f-11e2-83d0-0017f200be7f;2b7b6aef-7a1f-11e2-83d0-0017f200be7f;2b7b6af0-7a1f-11e2-83d0-0017f200be7f;2b7b6af1-7a1f-11e2-83d0-0017f200be7f;2b7b6af2-7a1f-11e2-83d0-0017f200be7f;2b7b6af3-7a1f-11e2-83d0-0017f200be7f;2b7b6af5-7a1f-11e2-83d0-0017f200be7f;2b7b6af6-7a1f-11e2-83d0-0017f200be7f;2b7b6af7-7a1f-11e2-83d0-0017f200be7f;2b7b6af8-7a1f-11e2-83d0-0017f200be7f;2b7b6af9-7a1f-11e2-83d0-0017f200be7f;2b7b6afa-7a1f-11e2-83d0-0017f200be7f;"
        }
      ]
    },
    {
      "id" : 11,
      "src" : "E:\\WordBias\\video\\sound 4.mp3",
      "rect" : [0, 0, 0, 0],
      "lastMod" : "20210305T013850",
      "sourceTracks" : [
        {
          "range" : [0, 11760000],
          "type" : 2,
          "editRate" : 10000000,
          "trackRect" : [0, 0, 0, 0],
          "sampleRate" : 24000,
          "bitDepth" : 0,
          "numChannels" : 1,
          "integratedLUFS" : -16.0700283871653,
          "peakLevel" : 0.492952525615692,
          "metaData" : ""
        }
      ]
    },
    {
      "id" : 12,
      "src" : "C:\\Users\\Bhavya\\Documents\\Camtasia\\Rec 03-04-21_010.trec",
      "rect" : [0, 0, 1920, 1080],
      "lastMod" : "20210305T020424",
      "sourceTracks" : [
        {
          "range" : [0, 1311],
          "type" : 0,
          "editRate" : 30,
          "trackRect" : [0, 0, 1920, 1080],
          "sampleRate" : 29,
          "bitDepth" : 0,
          "numChannels" : 0,
          "integratedLUFS" : 100.0,
          "peakLevel" : -1.0,
          "metaData" : "2b7b6a00-7a1f-11e2-83d0-0017f200be7f;2b7b6aef-7a1f-11e2-83d0-0017f200be7f;2b7b6af0-7a1f-11e2-83d0-0017f200be7f;2b7b6af1-7a1f-11e2-83d0-0017f200be7f;2b7b6af2-7a1f-11e2-83d0-0017f200be7f;2b7b6af3-7a1f-11e2-83d0-0017f200be7f;2b7b6af5-7a1f-11e2-83d0-0017f200be7f;2b7b6af6-7a1f-11e2-83d0-0017f200be7f;2b7b6af7-7a1f-11e2-83d0-0017f200be7f;2b7b6af8-7a1f-11e2-83d0-0017f200be7f;2b7b6af9-7a1f-11e2-83d0-0017f200be7f;2b7b6afa-7a1f-11e2-83d0-0017f200be7f;"
        }
      ]
    },
    {
      "id" : 13,
      "src" : "E:\\WordBias\\video\\video_title2.png",
      "rect" : [0, 0, 1280, 720],
      "lastMod" : "20210305T083423",
      "sourceTracks" : [
        {
          "range" : [0, 1],
          "type" : 1,
          "editRate" : 10000000,
          "trackRect" : [0, 0, 1280, 720],
          "sampleRate" : 0,
          "bitDepth" : 24,
          "numChannels" : 0,
          "integratedLUFS" : 100.0,
          "peakLevel" : -1.0,
          "metaData" : ""
        }
      ]
    }
  ],
  "timeline" : {
    "id" : 14,
    "sceneTrack" : {
      "scenes" : [
        {
          "duration" : 33.2666666666667,
          "title" : "",
          "type" : "",
          "csml" : {
            "tracks" : [
              {
                "trackIndex" : 0,
                "medias" : [
                  {
                    "id" : 15,
                    "_type" : "AMFile",
                    "src" : 6,
                    "trackNumber" : 0,
                    "attributes" : {
                      "ident" : "bg_music",
                      "gain" : 1.0,
                      "mixToMono" : false
                    },
                      "channelNumber" : "0,1",
                    "parameters" : {
                      "volume" : 0.21978021978022
                    },
                    "effects" : [

                    ],
                    "start" : 0,
                    "duration" : 990,
                    "mediaStart" : 0,
                    "mediaDuration" : 990,
                    "scalar" : 1,
                    "metadata" : {
                      "clipSpeedAttribute" : false
                    },
                    "animationTracks" : {

                    }
                  }
                ]
              },
              {
                "trackIndex" : 1,
                "medias" : [
                  {
                    "id" : 16,
                    "_type" : "AMFile",
                    "src" : 4,
                    "trackNumber" : 0,
                    "attributes" : {
                      "ident" : "sound1",
                      "gain" : 1.0,
                      "mixToMono" : false
                    },
                      "channelNumber" : "0",
                    "parameters" : {
                      "volume" : 0.769230769230769
                    },
                    "effects" : [

                    ],
                    "start" : 60,
                    "duration" : 314,
                    "mediaStart" : 0,
                    "mediaDuration" : 314,
                    "scalar" : 1,
                    "metadata" : {
                      "clipSpeedAttribute" : false
                    },
                    "animationTracks" : {

                    }
                  },
                  {
                    "id" : 17,
                    "_type" : "AMFile",
                    "src" : 5,
                    "trackNumber" : 0,
                    "attributes" : {
                      "ident" : "sound2",
                      "gain" : 1.0,
                      "mixToMono" : false
                    },
                      "channelNumber" : "0",
                    "parameters" : {
                      "volume" : 0.769230769230769
                    },
                    "effects" : [

                    ],
                    "start" : 374,
                    "duration" : 273,
                    "mediaStart" : 0,
                    "mediaDuration" : 273,
                    "scalar" : 1,
                    "metadata" : {
                      "clipSpeedAttribute" : false
                    },
                    "animationTracks" : {

                    }
                  },
                  {
                    "id" : 18,
                    "_type" : "AMFile",
                    "src" : 9,
                    "trackNumber" : 0,
                    "attributes" : {
                      "ident" : "sound3",
                      "gain" : 1.0,
                      "mixToMono" : false
                    },
                      "channelNumber" : "0",
                    "effects" : [

                    ],
                    "start" : 647,
                    "duration" : 230,
                    "mediaStart" : 0,
                    "mediaDuration" : 230,
                    "scalar" : 1,
                    "metadata" : {
                      "clipSpeedAttribute" : false
                    },
                    "animationTracks" : {

                    }
                  },
                  {
                    "id" : 19,
                    "_type" : "AMFile",
                    "src" : 11,
                    "trackNumber" : 0,
                    "attributes" : {
                      "ident" : "sound 4",
                      "gain" : 1.0,
                      "mixToMono" : false
                    },
                      "channelNumber" : "0",
                    "effects" : [

                    ],
                    "start" : 877,
                    "duration" : 35,
                    "mediaStart" : 0,
                    "mediaDuration" : 35,
                    "scalar" : 1,
                    "metadata" : {
                      "clipSpeedAttribute" : false
                    },
                    "animationTracks" : {

                    }
                  },
                  {
                    "id" : 20,
                    "_type" : "Callout",
                    "def" : {
                      "kind" : "remix",
                      "shape" : "text-rectangle",
                      "style" : "basic",
                      "fill-color-blue" : {
                        "type" : "double",
                        "defaultValue" : 1.0,
                        "interp" : "linr"
                      },
                      "fill-color-green" : {
                        "type" : "double",
                        "defaultValue" : 1.0,
                        "interp" : "linr"
                      },
                      "fill-color-opacity" : {
                        "type" : "double",
                        "defaultValue" : 1.0,
                        "interp" : "linr"
                      },
                      "fill-color-red" : {
                        "type" : "double",
                        "defaultValue" : 1.0,
                        "interp" : "linr"
                      },
                      "height" : {
                        "type" : "double",
                        "defaultValue" : 61.3207547169232,
                        "interp" : "linr"
                      },
                      "line-spacing" : {
                        "type" : "double",
                        "defaultValue" : 0.0,
                        "interp" : "linr"
                      },
                      "stroke-color-blue" : {
                        "type" : "double",
                        "defaultValue" : 1.0,
                        "interp" : "linr"
                      },
                      "stroke-color-green" : {
                        "type" : "double",
                        "defaultValue" : 1.0,
                        "interp" : "linr"
                      },
                      "stroke-color-opacity" : {
                        "type" : "double",
                        "defaultValue" : 1.0,
                        "interp" : "linr"
                      },
                      "stroke-color-red" : {
                        "type" : "double",
                        "defaultValue" : 1.0,
                        "interp" : "linr"
                      },
                      "stroke-width" : {
                        "type" : "double",
                        "defaultValue" : 2.0,
                        "interp" : "linr"
                      },
                      "tail-x" : {
                        "type" : "double",
                        "defaultValue" : -26.1792452830405,
                        "interp" : "linr"
                      },
                      "tail-y" : {
                        "type" : "double",
                        "defaultValue" : -64.3396226415384,
                        "interp" : "linr"
                      },
                      "width" : {
                        "type" : "double",
                        "defaultValue" : 1444.81132075426,
                        "interp" : "linr"
                      },
                      "word-wrap" : {
                        "type" : "double",
                        "defaultValue" : 1.0,
                        "interp" : "linr"
                      },
                      "fill-style" : "solid",
                      "horizontal-alignment" : "center",
                      "resize-behavior" : "resizeText",
                      "stroke-style" : "solid",
                      "text" : "Check out github.com/bhavyaghai/WordBias for more",
                      "vertical-alignment" : "center",
                      "font" : {
                        "color-blue" : {
                          "type" : "double",
                          "defaultValue" : 0.266666666666667,
                          "interp" : "linr"
                        },
                        "color-green" : {
                          "type" : "double",
                          "defaultValue" : 0.231372549019608,
                          "interp" : "linr"
                        },
                        "color-opacity" : {
                          "type" : "double",
                          "defaultValue" : 1.0,
                          "interp" : "linr"
                        },
                        "color-red" : {
                          "type" : "double",
                          "defaultValue" : 0.184313725490196,
                          "interp" : "linr"
                        },
                        "size" : {
                          "type" : "double",
                          "defaultValue" : 64.0,
                          "interp" : "linr"
                        },
                        "tracking" : {
                          "type" : "double",
                          "defaultValue" : 0.0,
                          "interp" : "linr"
                        },
                        "name" : "Montserrat",
                        "weight" : "Regular"
                      },
                      "textAttributes" : {
                        "type" : "textAttributeList",
                        "keyframes" : [
                          {
                            "endTime" : 0,
                            "time" : 0,
                            "value" : [{"name":"fontWeight","rangeEnd":49,"rangeStart":0,"value":400,"valueType":"int"},{"name":"strikethrough","rangeEnd":49,"rangeStart":0,"value":0,"valueType":"int"},{"name":"kerning","rangeEnd":49,"rangeStart":0,"value":0,"valueType":"double"},{"name":"fontItalic","rangeEnd":49,"rangeStart":0,"value":0,"valueType":"int"},{"name":"underline","rangeEnd":49,"rangeStart":0,"value":0,"valueType":"int"},{"name":"fontSize","rangeEnd":49,"rangeStart":0,"value":51,"valueType":"double"},{"name":"fgColor","rangeEnd":49,"rangeStart":0,"value":"(0,0,0,255)","valueType":"color"},{"name":"fontName","rangeEnd":49,"rangeStart":0,"value":"Montserrat","valueType":"string"}],
                            "duration" : 0
                          }
                        ]
                      }
                    },
                    "attributes" : {
                      "autoRotateText" : true
                    },
                    "parameters" : {
                      "translation0" : {
                        "type" : "double",
                        "defaultValue" : 37.735849056694,
                        "interp" : "eioe"
                      },
                      "translation1" : {
                        "type" : "double",
                        "defaultValue" : -83.9622641509924,
                        "interp" : "eioe"
                      }
                    },
                    "effects" : [

                    ],
                    "start" : 926,
                    "duration" : 72,
                    "mediaStart" : 0,
                    "mediaDuration" : 72,
                    "scalar" : 1,
                    "metadata" : {
                      "clipSpeedAttribute" : false,
                      "default-HAlign" : "center",
                      "default-LineSpace" : 0.0,
                      "default-VAlign" : "center",
                      "default-stroke-color-blue" : 0.56078431372549,
                      "default-stroke-color-green" : 0.686274509803922,
                      "default-stroke-color-red" : 0.0196078431372549,
                      "default-text-attributes" : null,
                      "default-translation0" : 0.0,
                      "default-translation1" : 0.0
                    },
                    "animationTracks" : {

                    }
                  }
                ]
              },
              {
                "trackIndex" : 2,
                "medias" : [
                  {
                    "id" : 21,
                    "_type" : "ScreenVMFile",
                    "src" : 7,
                    "trackNumber" : 0,
                    "attributes" : {
                      "ident" : "Rec 03-04-21_005"
                    },
                    "parameters" : {
                      "translation0" : {
                        "type" : "double",
                        "defaultValue" : -1.88663307199022e-10,
                        "interp" : "eioe"
                      },
                      "translation1" : {
                        "type" : "double",
                        "defaultValue" : 5.73905367673433e-11,
                        "interp" : "eioe"
                      },
                      "cursorScale" : {
                        "type" : "double",
                        "defaultValue" : 1.0,
                        "interp" : "linr"
                      },
                      "cursorOpacity" : {
                        "type" : "double",
                        "defaultValue" : 1.0,
                        "interp" : "linr"
                      }
                    },
                    "effects" : [

                    ],
                    "start" : 60,
                    "duration" : 187,
                    "mediaStart" : 340,
                    "mediaDuration" : 187,
                    "scalar" : 1,
                    "metadata" : {
                      "AutoAppliedSmartFocus" : "False",
                      "clipSpeedAttribute" : false,
                      "default-translation0" : 0.0,
                      "default-translation1" : 0.0
                    },
                    "animationTracks" : {

                    }
                  },
                  {
                    "id" : 22,
                    "_type" : "ScreenVMFile",
                    "src" : 2,
                    "trackNumber" : 0,
                    "attributes" : {
                      "ident" : "Rec 03-04-21_004"
                    },
                    "parameters" : {
                      "translation0" : {
                        "type" : "double",
                        "defaultValue" : -1.20286003379988e-10,
                        "interp" : "eioe"
                      },
                      "translation1" : {
                        "type" : "double",
                        "defaultValue" : -1.10302877942559e-10,
                        "interp" : "eioe"
                      },
                      "scale0" : {
                        "type" : "double",
                        "defaultValue" : 1.00000000000011,
                        "interp" : "eioe"
                      },
                      "scale1" : {
                        "type" : "double",
                        "defaultValue" : 1.00000000000011,
                        "interp" : "eioe"
                      },
                      "cursorScale" : {
                        "type" : "double",
                        "defaultValue" : 1.0,
                        "interp" : "linr"
                      },
                      "cursorOpacity" : {
                        "type" : "double",
                        "defaultValue" : 1.0,
                        "interp" : "linr"
                      }
                    },
                    "effects" : [

                    ],
                    "start" : 247,
                    "duration" : 48,
                    "mediaStart" : 0,
                    "mediaDuration" : 48,
                    "scalar" : 1,
                    "metadata" : {
                      "AutoAppliedSmartFocus" : "False",
                      "clipSpeedAttribute" : false,
                      "default-cursor-opacity" : 1.0,
                      "default-scale0" : 1.0,
                      "default-scale1" : 1.0,
                      "default-translation0" : 0.0,
                      "default-translation1" : 0.0
                    },
                    "animationTracks" : {

                    }
                  },
                  {
                    "id" : 23,
                    "_type" : "ScreenVMFile",
                    "src" : 2,
                    "trackNumber" : 0,
                    "attributes" : {
                      "ident" : "Rec 03-04-21_004"
                    },
                    "parameters" : {
                      "translation0" : {
                        "type" : "double",
                        "defaultValue" : -1.20286003379988e-10,
                        "interp" : "eioe"
                      },
                      "translation1" : {
                        "type" : "double",
                        "defaultValue" : -1.10302877942559e-10,
                        "interp" : "eioe"
                      },
                      "scale0" : {
                        "type" : "double",
                        "defaultValue" : 1.00000000000011,
                        "interp" : "eioe"
                      },
                      "scale1" : {
                        "type" : "double",
                        "defaultValue" : 1.00000000000011,
                        "interp" : "eioe"
                      },
                      "cursorScale" : {
                        "type" : "double",
                        "defaultValue" : 1.0,
                        "interp" : "linr"
                      },
                      "cursorOpacity" : {
                        "type" : "double",
                        "defaultValue" : 1.0,
                        "interp" : "linr"
                      }
                    },
                    "effects" : [
                        {
                          "effectName" : "CursorMagnify",
                          "category" : "categoryCursorEffects",
                          "parameters" : {
                            "border-color-alpha" : {
                              "type" : "double",
                              "defaultValue" : 1.0,
                              "interp" : "linr",
                              "uiHints" : {
                                "userInterfaceType" : 0,
                                "unitType" : 0
                              }
                            },
                            "border-color-blue" : {
                              "type" : "double",
                              "defaultValue" : 0.0,
                              "interp" : "linr",
                              "uiHints" : {
                                "userInterfaceType" : 0,
                                "unitType" : 0
                              }
                            },
                            "border-color-green" : {
                              "type" : "double",
                              "defaultValue" : 0.0,
                              "interp" : "linr",
                              "uiHints" : {
                                "userInterfaceType" : 0,
                                "unitType" : 0
                              }
                            },
                            "border-color-red" : {
                              "type" : "double",
                              "defaultValue" : 0.0,
                              "interp" : "linr",
                              "uiHints" : {
                                "userInterfaceType" : 0,
                                "unitType" : 0
                              }
                            },
                            "border-width" : {
                              "type" : "double",
                              "defaultValue" : 0.0,
                              "interp" : "linr",
                              "uiHints" : {
                                "userInterfaceType" : 0,
                                "unitType" : 0
                              }
                            },
                            "radius" : {
                              "type" : "double",
                              "defaultValue" : 100.0,
                              "interp" : "linr",
                              "uiHints" : {
                                "userInterfaceType" : 0,
                                "unitType" : 0
                              }
                            },
                            "softness" : {
                              "type" : "double",
                              "defaultValue" : 0.0,
                              "interp" : "linr",
                              "uiHints" : {
                                "userInterfaceType" : 0,
                                "unitType" : 0
                              }
                            },
                            "zoom-level" : {
                              "type" : "double",
                              "defaultValue" : 150.0,
                              "interp" : "linr",
                              "uiHints" : {
                                "userInterfaceType" : 0,
                                "unitType" : 0
                              }
                            }
                          }
                        }
                    ],
                    "start" : 295,
                    "duration" : 185,
                    "mediaStart" : 48,
                    "mediaDuration" : 185,
                    "scalar" : 1,
                    "metadata" : {
                      "AutoAppliedSmartFocus" : "False",
                      "clipSpeedAttribute" : false,
                      "default-cursor-opacity" : 1.0,
                      "default-scale0" : 1.0,
                      "default-scale1" : 1.0,
                      "default-translation0" : 0.0,
                      "default-translation1" : 0.0
                    },
                    "animationTracks" : {

                    }
                  },
                  {
                    "id" : 24,
                    "_type" : "ScreenVMFile",
                    "src" : 2,
                    "trackNumber" : 0,
                    "attributes" : {
                      "ident" : "Rec 03-04-21_004"
                    },
                    "parameters" : {
                      "translation0" : {
                        "type" : "double",
                        "defaultValue" : -2.05897521254883e-11,
                        "interp" : "eioe"
                      },
                      "translation1" : {
                        "type" : "double",
                        "defaultValue" : 1.92690308153942e-10,
                        "interp" : "eioe"
                      },
                      "scale0" : {
                        "type" : "double",
                        "defaultValue" : 1.00000000000011,
                        "interp" : "eioe"
                      },
                      "scale1" : {
                        "type" : "double",
                        "defaultValue" : 1.00000000000011,
                        "interp" : "eioe"
                      },
                      "cursorScale" : {
                        "type" : "double",
                        "defaultValue" : 1.0,
                        "interp" : "linr"
                      },
                      "cursorOpacity" : {
                        "type" : "double",
                        "defaultValue" : 1.0,
                        "interp" : "linr"
                      }
                    },
                    "effects" : [

                    ],
                    "start" : 480,
                    "duration" : 54,
                    "mediaStart" : 233,
                    "mediaDuration" : 54,
                    "scalar" : 1,
                    "metadata" : {
                      "AutoAppliedSmartFocus" : "False",
                      "clipSpeedAttribute" : false,
                      "default-cursor-opacity" : 1.0,
                      "default-scale0" : 1.0,
                      "default-scale1" : 1.0,
                      "default-translation0" : 0.0,
                      "default-translation1" : 0.0
                    },
                    "animationTracks" : {

                    }
                  },
                  {
                    "id" : 25,
                    "_type" : "ScreenVMFile",
                    "src" : 8,
                    "trackNumber" : 0,
                    "attributes" : {
                      "ident" : "Rec 03-04-21_006"
                    },
                    "parameters" : {
                      "cursorScale" : {
                        "type" : "double",
                        "defaultValue" : 1.0,
                        "interp" : "linr"
                      },
                      "cursorOpacity" : {
                        "type" : "double",
                        "defaultValue" : 1.0,
                        "interp" : "linr"
                      }
                    },
                    "effects" : [

                    ],
                    "start" : 534,
                    "duration" : 113,
                    "mediaStart" : 201,
                    "mediaDuration" : 113,
                    "scalar" : 1,
                    "metadata" : {
                      "AutoAppliedSmartFocus" : "False",
                      "clipSpeedAttribute" : false
                    },
                    "animationTracks" : {

                    }
                  },
                  {
                    "id" : 26,
                    "_type" : "ScreenVMFile",
                    "src" : 2,
                    "trackNumber" : 0,
                    "attributes" : {
                      "ident" : "Rec 03-04-21_004"
                    },
                    "parameters" : {
                      "translation0" : {
                        "type" : "double",
                        "defaultValue" : 3.92432752960303e-11,
                        "interp" : "eioe"
                      },
                      "translation1" : {
                        "type" : "double",
                        "defaultValue" : -5.29887245193095e-11,
                        "interp" : "eioe"
                      },
                      "scale0" : {
                        "type" : "double",
                        "defaultValue" : 0.999999999999999,
                        "interp" : "eioe"
                      },
                      "cursorScale" : {
                        "type" : "double",
                        "defaultValue" : 1.0,
                        "interp" : "linr"
                      },
                      "cursorOpacity" : {
                        "type" : "double",
                        "defaultValue" : 1.0,
                        "interp" : "linr"
                      }
                    },
                    "effects" : [

                    ],
                    "start" : 647,
                    "duration" : 271,
                    "mediaStart" : 1007,
                    "mediaDuration" : 461,
                    "scalar" : "271/461",
                    "metadata" : {
                      "AutoAppliedSmartFocus" : "False",
                      "clipSpeedAttribute" : true,
                      "default-scale0" : 1.0,
                      "default-scale1" : 1.0,
                      "default-translation0" : 0.0,
                      "default-translation1" : 0.0
                    },
                    "animationTracks" : {

                    }
                  },
                  {
                    "id" : 27,
                    "_type" : "Group",
                    "parameters" : {
                      "opacity" : 0.795000000000001,
                      "volume" : 1.0
                    },
                    "tracks" : [
                      {
                        "trackIndex" : 0,
                        "medias" : [
                          {
                            "id" : 28,
                            "_type" : "ScreenVMFile",
                            "src" : 10,
                            "trackNumber" : 0,
                            "attributes" : {
                              "ident" : "Rec 03-04-21_009"
                            },
                            "parameters" : {
                              "cursorScale" : {
                                "type" : "double",
                                "defaultValue" : 1.0,
                                "interp" : "linr"
                              },
                              "cursorOpacity" : {
                                "type" : "double",
                                "defaultValue" : 1.0,
                                "interp" : "linr"
                              }
                            },
                            "effects" : [

                            ],
                            "start" : 0,
                            "duration" : 27,
                            "mediaStart" : 0,
                            "mediaDuration" : 820,
                            "scalar" : "27/820",
                            "metadata" : {
                              "AutoAppliedSmartFocus" : "False",
                              "clipSpeedAttribute" : true
                            },
                            "animationTracks" : {

                            }
                          },
                          {
                            "id" : 29,
                            "_type" : "ScreenVMFile",
                            "src" : 12,
                            "trackNumber" : 0,
                            "attributes" : {
                              "ident" : "Rec 03-04-21_010"
                            },
                            "parameters" : {
                              "cursorScale" : {
                                "type" : "double",
                                "defaultValue" : 1.0,
                                "interp" : "linr"
                              },
                              "cursorOpacity" : {
                                "type" : "double",
                                "defaultValue" : 1.0,
                                "interp" : "linr"
                              }
                            },
                            "effects" : [

                            ],
                            "start" : 27,
                            "duration" : 30,
                            "mediaStart" : 0,
                            "mediaDuration" : 897,
                            "scalar" : "10/299",
                            "metadata" : {
                              "AutoAppliedSmartFocus" : "False",
                              "clipSpeedAttribute" : true
                            },
                            "animationTracks" : {

                            }
                          },
                          {
                            "id" : 30,
                            "_type" : "ScreenVMFile",
                            "src" : 12,
                            "trackNumber" : 0,
                            "attributes" : {
                              "ident" : "Rec 03-04-21_010"
                            },
                            "parameters" : {
                              "cursorScale" : {
                                "type" : "double",
                                "defaultValue" : 1.0,
                                "interp" : "linr"
                              },
                              "cursorOpacity" : {
                                "type" : "double",
                                "defaultValue" : 1.0,
                                "interp" : "linr"
                              }
                            },
                            "effects" : [

                            ],
                            "start" : 57,
                            "duration" : 15,
                            "mediaStart" : "11871/11",
                            "mediaDuration" : "2550/11",
                            "scalar" : "11/170",
                            "metadata" : {
                              "AutoAppliedSmartFocus" : "False",
                              "clipSpeedAttribute" : true
                            },
                            "animationTracks" : {

                            }
                          }
                        ],
                          "ident" : "",
                          "audioMuted" : false,
                          "videoHidden" : false,
                          "magnetic" : false,
                          "metadata" : {
                            "IsLocked" : "False",
                            "WinTrackHeight" : "0"
                          }
                      }
                    ],
                    "attributes" : {
                      "ident" : "Group 3",
                      "gain" : 1.0,
                      "mixToMono" : false
                    },
                    "effects" : [

                    ],
                    "start" : 918,
                    "duration" : 72,
                    "mediaStart" : 0.0,
                    "mediaDuration" : 72.0,
                    "scalar" : 1,
                    "metadata" : {
                      "IsGroupExpanded" : "False",
                      "default-opacity" : 1.0
                    },
                    "animationTracks" : {

                    }
                  }
                ]
              },
              {
                "trackIndex" : 3,
                "medias" : [
                  {
                    "id" : 31,
                    "_type" : "IMFile",
                    "src" : 13,
                    "trackNumber" : 0,
                    "trimStartSum" : 0,
                    "attributes" : {
                      "ident" : "video_title2"
                    },
                    "parameters" : {
                      "translation0" : {
                        "type" : "double",
                        "defaultValue" : -2.11940687222523e-10,
                        "interp" : "eioe"
                      },
                      "translation1" : {
                        "type" : "double",
                        "defaultValue" : -1.19200649351114e-10,
                        "interp" : "eioe"
                      },
                      "scale0" : {
                        "type" : "double",
                        "defaultValue" : 1.49999999999998,
                        "interp" : "eioe"
                      },
                      "scale1" : {
                        "type" : "double",
                        "defaultValue" : 1.49999999999998,
                        "interp" : "eioe"
                      }
                    },
                    "effects" : [

                    ],
                    "start" : 0,
                    "duration" : 60,
                    "mediaStart" : 0,
                    "mediaDuration" : 1,
                    "scalar" : 1,
                    "metadata" : {
                      "clipSpeedAttribute" : false,
                      "default-scale0" : 1.0,
                      "default-scale1" : 1.0,
                      "default-translation0" : 0.0,
                      "default-translation1" : 0.0
                    },
                    "animationTracks" : {

                    }
                  },
                  {
                    "id" : 32,
                    "_type" : "Callout",
                    "def" : {
                      "kind" : "TypeWinSVG",
                      "shape" : "",
                      "style" : "",
                      "DrawTime" : 1.0,
                      "borderColorBlue" : 0.0,
                      "borderColorGreen" : 0.0,
                      "borderColorRed" : 0.0,
                      "borderWidth" : 4.0,
                      "flipOnXAxis" : 0.0,
                      "flipOnYAxis" : 1.0,
                      "height" : 270.0,
                      "width" : 480.0,
                      "filename" : "C:\\Program Files\\TechSmith\\Camtasia 2019\\Media\\Studio\\Callouts\\anim_straightline.svg",
                      "name" : "",
                      "xmlContent" : "ï»¿<?xml version=\"1.0\" encoding=\"utf-8\"?>\n<!DOCTYPE svg PUBLIC \"-//W3C//DTD SVG 1.1//EN\" \"http://www.w3.org/Graphics/SVG/1.1/DTD/svg11.dtd\">\n<svg version=\"1.1\" id=\"Layer_1\" xmlns=\"http://www.w3.org/2000/svg\" xmlns:xlink=\"http://www.w3.org/1999/xlink\" x=\"0px\" y=\"0px\"\n\t width=\"128px\" height=\"109px\" viewBox=\"0 0 128 109\" enable-background=\"new 0 0 128 109\" xml:space=\"preserve\">\n<path fill=\"none\" d=\"M 0 50 L 128 49\"/>\n</svg>\n"
                    },
                    "attributes" : {
                      "autoRotateText" : true
                    },
                    "parameters" : {
                      "translation0" : -296.226415094386,
                      "translation1" : -18.8679245286429,
                      "scale0" : -0.0062893081755964,
                      "scale1" : 3.41788958770031
                    },
                    "leftEdgeMods" : [
                      {
                        "group" : "DrawPercentageFade",
                        "duration" : 6,
                        "parameters" : [
                          {
                            "name" : "DrawTime",
                              "func" : "FadeInFunc"
                            }
                        ]
                      }
                    ],
                    "effects" : [

                    ],
                    "start" : 145,
                    "duration" : 150,
                    "mediaStart" : 0,
                    "mediaDuration" : 150,
                    "scalar" : 1,
                    "metadata" : {
                      "clipSpeedAttribute" : false,
                      "default-legacy-drawtime-duration" : 1.0,
                      "default-legacy-flip-y" : 0.0,
                      "default-scale0" : 1.0,
                      "default-scale1" : 1.0,
                      "default-stroke-color-blue" : 0.0,
                      "default-stroke-color-green" : 0.0,
                      "default-stroke-color-red" : 1.0,
                      "default-stroke-width" : 5.0,
                      "default-translation0" : 0.0,
                      "default-translation1" : 0.0
                    },
                    "animationTracks" : {

                    }
                  },
                  {
                    "id" : 33,
                    "_type" : "Callout",
                    "def" : {
                      "kind" : "TypeWinSVG",
                      "shape" : "",
                      "style" : "",
                      "DrawTime" : 1.0,
                      "borderColorBlue" : 0.870588235294118,
                      "borderColorGreen" : 0.341176470588235,
                      "borderColorRed" : 0.105882352941176,
                      "borderWidth" : 5.0,
                      "flipOnXAxis" : 0.0,
                      "flipOnYAxis" : 0.0,
                      "height" : 270.0,
                      "width" : 480.0,
                      "filename" : "C:\\Program Files\\TechSmith\\Camtasia 2019\\Media\\Studio\\Callouts\\anim_drawnoval.svg",
                      "name" : "",
                      "xmlContent" : "ï»¿<?xml version=\"1.0\" encoding=\"utf-8\"?>\n<!-- Generator: Adobe Illustrator 13.0.2, SVG Export Plug-In . SVG Version: 6.00 Build 14948)  -->\n<!DOCTYPE svg PUBLIC \"-//W3C//DTD SVG 1.1//EN\" \"http://www.w3.org/Graphics/SVG/1.1/DTD/svg11.dtd\">\n<svg version=\"1.1\" id=\"Layer_1\" xmlns=\"http://www.w3.org/2000/svg\" xmlns:xlink=\"http://www.w3.org/1999/xlink\" x=\"0px\" y=\"0px\"\n\t width=\"299.75px\" height=\"214.496px\" viewBox=\"0 0 299.75 214.496\" enable-background=\"new 0 0 299.75 214.496\"\n\t xml:space=\"preserve\">\n<path fill=\"none\" d=\"M142.383,0.35c-26-3-55,14-74,24c-69,38-104,133-16,172c54,24,119,23,175,4c40-13,83-43,70-91\n\tc-25-95-141-116-224-99\"/>\n</svg>\n"
                    },
                    "attributes" : {
                      "autoRotateText" : true
                    },
                    "parameters" : {
                      "translation0" : -291.886792452942,
                      "translation1" : 416.981132075123,
                      "scale0" : 0.508647798741976,
                      "scale1" : 0.440950384347707
                    },
                    "leftEdgeMods" : [
                      {
                        "group" : "DrawPercentageFade",
                        "duration" : 30,
                        "parameters" : [
                          {
                            "name" : "DrawTime",
                              "func" : "FadeInFunc"
                            }
                        ]
                      }
                    ],
                    "effects" : [

                    ],
                    "start" : 491,
                    "duration" : 150,
                    "mediaStart" : 0,
                    "mediaDuration" : 150,
                    "scalar" : 1,
                    "metadata" : {
                      "clipSpeedAttribute" : false,
                      "default-scale0" : 1.0,
                      "default-scale1" : 1.0,
                      "default-stroke-color-blue" : 0.0,
                      "default-stroke-color-green" : 0.0,
                      "default-stroke-color-red" : 1.0,
                      "default-translation0" : 0.0,
                      "default-translation1" : 0.0
                    },
                    "animationTracks" : {

                    }
                  }
                ]
              },
              {
                "trackIndex" : 4,
                "medias" : [
                  {
                    "id" : 34,
                    "_type" : "Callout",
                    "def" : {
                      "kind" : "TypeWinSVG",
                      "shape" : "",
                      "style" : "",
                      "DrawTime" : {
                        "type" : "double",
                        "defaultValue" : 1.0,
                        "interp" : "linr"
                      },
                      "borderColorBlue" : {
                        "type" : "double",
                        "defaultValue" : 0.0,
                        "interp" : "linr"
                      },
                      "borderColorGreen" : {
                        "type" : "double",
                        "defaultValue" : 0.0,
                        "interp" : "linr"
                      },
                      "borderColorRed" : {
                        "type" : "double",
                        "defaultValue" : 0.0,
                        "interp" : "linr"
                      },
                      "borderWidth" : {
                        "type" : "double",
                        "defaultValue" : 4.0,
                        "interp" : "linr"
                      },
                      "flipOnXAxis" : {
                        "type" : "double",
                        "defaultValue" : 0.0,
                        "interp" : "linr"
                      },
                      "flipOnYAxis" : {
                        "type" : "double",
                        "defaultValue" : 1.0,
                        "interp" : "linr"
                      },
                      "height" : {
                        "type" : "double",
                        "defaultValue" : 270.0,
                        "interp" : "linr"
                      },
                      "width" : {
                        "type" : "double",
                        "defaultValue" : 480.0,
                        "interp" : "linr"
                      },
                      "filename" : "C:\\Program Files\\TechSmith\\Camtasia 2019\\Media\\Studio\\Callouts\\anim_straightline.svg",
                      "name" : "",
                      "xmlContent" : "ï»¿<?xml version=\"1.0\" encoding=\"utf-8\"?>\n<!DOCTYPE svg PUBLIC \"-//W3C//DTD SVG 1.1//EN\" \"http://www.w3.org/Graphics/SVG/1.1/DTD/svg11.dtd\">\n<svg version=\"1.1\" id=\"Layer_1\" xmlns=\"http://www.w3.org/2000/svg\" xmlns:xlink=\"http://www.w3.org/1999/xlink\" x=\"0px\" y=\"0px\"\n\t width=\"128px\" height=\"109px\" viewBox=\"0 0 128 109\" enable-background=\"new 0 0 128 109\" xml:space=\"preserve\">\n<path fill=\"none\" d=\"M 0 50 L 128 49\"/>\n</svg>\n"
                    },
                    "attributes" : {
                      "autoRotateText" : true
                    },
                    "parameters" : {
                      "translation0" : {
                        "type" : "double",
                        "defaultValue" : -94.339622641509,
                        "interp" : "eioe"
                      },
                      "translation1" : {
                        "type" : "double",
                        "defaultValue" : -18.8679245286429,
                        "interp" : "eioe"
                      },
                      "scale0" : {
                        "type" : "double",
                        "defaultValue" : -0.0062893081755964,
                        "interp" : "eioe"
                      },
                      "scale1" : {
                        "type" : "double",
                        "defaultValue" : 3.41788958770031,
                        "interp" : "eioe"
                      }
                    },
                    "leftEdgeMods" : [
                      {
                        "group" : "DrawPercentageFade",
                        "duration" : 6,
                        "parameters" : [
                          {
                            "name" : "DrawTime",
                              "func" : "FadeInFunc"
                            }
                        ]
                      }
                    ],
                    "effects" : [

                    ],
                    "start" : 145,
                    "duration" : 150,
                    "mediaStart" : 0,
                    "mediaDuration" : 150,
                    "scalar" : 1,
                    "metadata" : {
                      "clipSpeedAttribute" : false,
                      "default-legacy-drawtime-duration" : 1.0,
                      "default-legacy-flip-y" : 0.0,
                      "default-scale0" : 1.0,
                      "default-scale1" : 1.0,
                      "default-stroke-color-blue" : 0.0,
                      "default-stroke-color-green" : 0.0,
                      "default-stroke-color-red" : 1.0,
                      "default-stroke-width" : 5.0,
                      "default-translation0" : 0.0,
                      "default-translation1" : 0.0
                    },
                    "animationTracks" : {

                    }
                  },
                  {
                    "id" : 35,
                    "_type" : "Callout",
                    "def" : {
                      "kind" : "TypeWinSVG",
                      "shape" : "",
                      "style" : "",
                      "DrawTime" : {
                        "type" : "double",
                        "defaultValue" : 1.0,
                        "interp" : "linr"
                      },
                      "borderColorBlue" : {
                        "type" : "double",
                        "defaultValue" : 0.870588235294118,
                        "interp" : "linr"
                      },
                      "borderColorGreen" : {
                        "type" : "double",
                        "defaultValue" : 0.341176470588235,
                        "interp" : "linr"
                      },
                      "borderColorRed" : {
                        "type" : "double",
                        "defaultValue" : 0.105882352941176,
                        "interp" : "linr"
                      },
                      "borderWidth" : {
                        "type" : "double",
                        "defaultValue" : 5.0,
                        "interp" : "linr"
                      },
                      "flipOnXAxis" : {
                        "type" : "double",
                        "defaultValue" : 0.0,
                        "interp" : "linr"
                      },
                      "flipOnYAxis" : {
                        "type" : "double",
                        "defaultValue" : 0.0,
                        "interp" : "linr"
                      },
                      "height" : {
                        "type" : "double",
                        "defaultValue" : 270.0,
                        "interp" : "linr"
                      },
                      "width" : {
                        "type" : "double",
                        "defaultValue" : 480.0,
                        "interp" : "linr"
                      },
                      "filename" : "C:\\Program Files\\TechSmith\\Camtasia 2019\\Media\\Studio\\Callouts\\anim_drawnoval.svg",
                      "name" : "",
                      "xmlContent" : "ï»¿<?xml version=\"1.0\" encoding=\"utf-8\"?>\n<!-- Generator: Adobe Illustrator 13.0.2, SVG Export Plug-In . SVG Version: 6.00 Build 14948)  -->\n<!DOCTYPE svg PUBLIC \"-//W3C//DTD SVG 1.1//EN\" \"http://www.w3.org/Graphics/SVG/1.1/DTD/svg11.dtd\">\n<svg version=\"1.1\" id=\"Layer_1\" xmlns=\"http://www.w3.org/2000/svg\" xmlns:xlink=\"http://www.w3.org/1999/xlink\" x=\"0px\" y=\"0px\"\n\t width=\"299.75px\" height=\"214.496px\" viewBox=\"0 0 299.75 214.496\" enable-background=\"new 0 0 299.75 214.496\"\n\t xml:space=\"preserve\">\n<path fill=\"none\" d=\"M142.383,0.35c-26-3-55,14-74,24c-69,38-104,133-16,172c54,24,119,23,175,4c40-13,83-43,70-91\n\tc-25-95-141-116-224-99\"/>\n</svg>\n"
                    },
                    "attributes" : {
                      "autoRotateText" : true
                    },
                    "parameters" : {
                      "translation0" : {
                        "type" : "double",
                        "defaultValue" : -71.132075471689,
                        "interp" : "eioe"
                      },
                      "translation1" : {
                        "type" : "double",
                        "defaultValue" : -443.396226415293,
                        "interp" : "eioe"
                      },
                      "scale0" : {
                        "type" : "double",
                        "defaultValue" : 0.508647798741976,
                        "interp" : "eioe"
                      },
                      "scale1" : {
                        "type" : "double",
                        "defaultValue" : 0.440950384347707,
                        "interp" : "eioe"
                      }
                    },
                    "leftEdgeMods" : [
                      {
                        "group" : "DrawPercentageFade",
                        "duration" : 30,
                        "parameters" : [
                          {
                            "name" : "DrawTime",
                              "func" : "FadeInFunc"
                            }
                        ]
                      }
                    ],
                    "effects" : [

                    ],
                    "start" : 513,
                    "duration" : 128,
                    "mediaStart" : 0,
                    "mediaDuration" : 128,
                    "scalar" : 1,
                    "metadata" : {
                      "clipSpeedAttribute" : false,
                      "default-scale0" : 1.0,
                      "default-scale1" : 1.0,
                      "default-stroke-color-blue" : 0.0,
                      "default-stroke-color-green" : 0.0,
                      "default-stroke-color-red" : 1.0,
                      "default-translation0" : 0.0,
                      "default-translation1" : 0.0
                    },
                    "animationTracks" : {

                    }
                  },
                  {
                    "id" : 36,
                    "_type" : "Callout",
                    "def" : {
                      "kind" : "remix",
                      "shape" : "text-rectangle",
                      "style" : "basic",
                      "fill-color-blue" : {
                        "type" : "double",
                        "defaultValue" : 1.0,
                        "interp" : "linr"
                      },
                      "fill-color-green" : {
                        "type" : "double",
                        "defaultValue" : 1.0,
                        "interp" : "linr"
                      },
                      "fill-color-opacity" : {
                        "type" : "double",
                        "defaultValue" : 1.0,
                        "interp" : "linr"
                      },
                      "fill-color-red" : {
                        "type" : "double",
                        "defaultValue" : 1.0,
                        "interp" : "linr"
                      },
                      "height" : {
                        "type" : "double",
                        "defaultValue" : 109.452830188678,
                        "interp" : "linr"
                      },
                      "line-spacing" : {
                        "type" : "double",
                        "defaultValue" : 0.0,
                        "interp" : "linr"
                      },
                      "stroke-color-blue" : {
                        "type" : "double",
                        "defaultValue" : 1.0,
                        "interp" : "linr"
                      },
                      "stroke-color-green" : {
                        "type" : "double",
                        "defaultValue" : 1.0,
                        "interp" : "linr"
                      },
                      "stroke-color-opacity" : {
                        "type" : "double",
                        "defaultValue" : 1.0,
                        "interp" : "linr"
                      },
                      "stroke-color-red" : {
                        "type" : "double",
                        "defaultValue" : 1.0,
                        "interp" : "linr"
                      },
                      "stroke-width" : {
                        "type" : "double",
                        "defaultValue" : 2.0,
                        "interp" : "linr"
                      },
                      "tail-x" : {
                        "type" : "double",
                        "defaultValue" : -859.273584905845,
                        "interp" : "linr"
                      },
                      "tail-y" : {
                        "type" : "double",
                        "defaultValue" : -68.1132075471993,
                        "interp" : "linr"
                      },
                      "width" : {
                        "type" : "double",
                        "defaultValue" : 950.888679246677,
                        "interp" : "linr"
                      },
                      "word-wrap" : {
                        "type" : "double",
                        "defaultValue" : 1.0,
                        "interp" : "linr"
                      },
                      "fill-style" : "solid",
                      "horizontal-alignment" : "center",
                      "resize-behavior" : "resizeText",
                      "stroke-style" : "solid",
                      "text" : "Thanks for Watching!",
                      "vertical-alignment" : "center",
                      "font" : {
                        "color-blue" : {
                          "type" : "double",
                          "defaultValue" : 0.266666666666667,
                          "interp" : "linr"
                        },
                        "color-green" : {
                          "type" : "double",
                          "defaultValue" : 0.231372549019608,
                          "interp" : "linr"
                        },
                        "color-opacity" : {
                          "type" : "double",
                          "defaultValue" : 1.0,
                          "interp" : "linr"
                        },
                        "color-red" : {
                          "type" : "double",
                          "defaultValue" : 0.184313725490196,
                          "interp" : "linr"
                        },
                        "size" : {
                          "type" : "double",
                          "defaultValue" : 64.0,
                          "interp" : "linr"
                        },
                        "tracking" : {
                          "type" : "double",
                          "defaultValue" : 0.0,
                          "interp" : "linr"
                        },
                        "name" : "Montserrat",
                        "weight" : "Regular"
                      },
                      "textAttributes" : {
                        "type" : "textAttributeList",
                        "keyframes" : [
                          {
                            "endTime" : 0,
                            "time" : 0,
                            "value" : [{"name":"fontWeight","rangeEnd":20,"rangeStart":0,"value":400,"valueType":"int"},{"name":"fontName","rangeEnd":20,"rangeStart":0,"value":"Montserrat","valueType":"string"},{"name":"kerning","rangeEnd":20,"rangeStart":0,"value":0,"valueType":"double"},{"name":"fontItalic","rangeEnd":20,"rangeStart":0,"value":0,"valueType":"int"},{"name":"underline","rangeEnd":20,"rangeStart":0,"value":0,"valueType":"int"},{"name":"strikethrough","rangeEnd":20,"rangeStart":0,"value":0,"valueType":"int"},{"name":"fontSize","rangeEnd":20,"rangeStart":0,"value":96,"valueType":"double"},{"name":"fgColor","rangeEnd":20,"rangeStart":0,"value":"(13,13,13,255)","valueType":"color"}],
                            "duration" : 0
                          }
                        ]
                      }
                    },
                    "attributes" : {
                      "autoRotateText" : true
                    },
                    "parameters" : {
                      "translation0" : {
                        "type" : "double",
                        "defaultValue" : 2.77715628271835e-11,
                        "interp" : "eioe"
                      },
                      "translation1" : {
                        "type" : "double",
                        "defaultValue" : 293.245282874706,
                        "interp" : "eioe"
                      }
                    },
                    "effects" : [

                    ],
                    "start" : 918,
                    "duration" : 72,
                    "mediaStart" : 0,
                    "mediaDuration" : 72,
                    "scalar" : 1,
                    "metadata" : {
                      "clipSpeedAttribute" : false,
                      "default-HAlign" : "center",
                      "default-LineSpace" : 0.0,
                      "default-VAlign" : "center",
                      "default-stroke-color-blue" : 0.56078431372549,
                      "default-stroke-color-green" : 0.686274509803922,
                      "default-stroke-color-red" : 0.0196078431372549,
                      "default-text-attributes" : null,
                      "default-translation0" : 0.0,
                      "default-translation1" : 0.0
                    },
                    "animationTracks" : {

                    }
                  }
                ]
              },
              {
                "trackIndex" : 5,
                "medias" : [
                  {
                    "id" : 37,
                    "_type" : "Callout",
                    "def" : {
                      "kind" : "TypeWinSVG",
                      "shape" : "",
                      "style" : "",
                      "DrawTime" : {
                        "type" : "double",
                        "defaultValue" : 1.0,
                        "interp" : "linr"
                      },
                      "borderColorBlue" : {
                        "type" : "double",
                        "defaultValue" : 0.0,
                        "interp" : "linr"
                      },
                      "borderColorGreen" : {
                        "type" : "double",
                        "defaultValue" : 0.0,
                        "interp" : "linr"
                      },
                      "borderColorRed" : {
                        "type" : "double",
                        "defaultValue" : 0.0,
                        "interp" : "linr"
                      },
                      "borderWidth" : {
                        "type" : "double",
                        "defaultValue" : 4.0,
                        "interp" : "linr"
                      },
                      "flipOnXAxis" : {
                        "type" : "double",
                        "defaultValue" : 0.0,
                        "interp" : "linr"
                      },
                      "flipOnYAxis" : {
                        "type" : "double",
                        "defaultValue" : 1.0,
                        "interp" : "linr"
                      },
                      "height" : {
                        "type" : "double",
                        "defaultValue" : 270.0,
                        "interp" : "linr"
                      },
                      "width" : {
                        "type" : "double",
                        "defaultValue" : 480.0,
                        "interp" : "linr"
                      },
                      "filename" : "C:\\Program Files\\TechSmith\\Camtasia 2019\\Media\\Studio\\Callouts\\anim_straightline.svg",
                      "name" : "",
                      "xmlContent" : "ï»¿<?xml version=\"1.0\" encoding=\"utf-8\"?>\n<!DOCTYPE svg PUBLIC \"-//W3C//DTD SVG 1.1//EN\" \"http://www.w3.org/Graphics/SVG/1.1/DTD/svg11.dtd\">\n<svg version=\"1.1\" id=\"Layer_1\" xmlns=\"http://www.w3.org/2000/svg\" xmlns:xlink=\"http://www.w3.org/1999/xlink\" x=\"0px\" y=\"0px\"\n\t width=\"128px\" height=\"109px\" viewBox=\"0 0 128 109\" enable-background=\"new 0 0 128 109\" xml:space=\"preserve\">\n<path fill=\"none\" d=\"M 0 50 L 128 49\"/>\n</svg>\n"
                    },
                    "attributes" : {
                      "autoRotateText" : true
                    },
                    "parameters" : {
                      "translation0" : {
                        "type" : "double",
                        "defaultValue" : 109.320754717016,
                        "interp" : "eioe"
                      },
                      "translation1" : {
                        "type" : "double",
                        "defaultValue" : -18.8679245286429,
                        "interp" : "eioe"
                      },
                      "scale0" : {
                        "type" : "double",
                        "defaultValue" : -0.0062893081755964,
                        "interp" : "eioe"
                      },
                      "scale1" : {
                        "type" : "double",
                        "defaultValue" : 3.41788958770031,
                        "interp" : "eioe"
                      }
                    },
                    "leftEdgeMods" : [
                      {
                        "group" : "DrawPercentageFade",
                        "duration" : 6,
                        "parameters" : [
                          {
                            "name" : "DrawTime",
                              "func" : "FadeInFunc"
                            }
                        ]
                      }
                    ],
                    "effects" : [

                    ],
                    "start" : 145,
                    "duration" : 150,
                    "mediaStart" : 0,
                    "mediaDuration" : 150,
                    "scalar" : 1,
                    "metadata" : {
                      "clipSpeedAttribute" : false,
                      "default-legacy-drawtime-duration" : 1.0,
                      "default-legacy-flip-y" : 0.0,
                      "default-scale0" : 1.0,
                      "default-scale1" : 1.0,
                      "default-stroke-color-blue" : 0.0,
                      "default-stroke-color-green" : 0.0,
                      "default-stroke-color-red" : 1.0,
                      "default-stroke-width" : 5.0,
                      "default-translation0" : 0.0,
                      "default-translation1" : 0.0
                    },
                    "animationTracks" : {

                    }
                  },
                  {
                    "id" : 38,
                    "_type" : "Callout",
                    "def" : {
                      "kind" : "TypeWinSVG",
                      "shape" : "",
                      "style" : "",
                      "DrawTime" : {
                        "type" : "double",
                        "defaultValue" : 1.0,
                        "interp" : "linr"
                      },
                      "borderColorBlue" : {
                        "type" : "double",
                        "defaultValue" : 0.870588235294118,
                        "interp" : "linr"
                      },
                      "borderColorGreen" : {
                        "type" : "double",
                        "defaultValue" : 0.341176470588235,
                        "interp" : "linr"
                      },
                      "borderColorRed" : {
                        "type" : "double",
                        "defaultValue" : 0.105882352941176,
                        "interp" : "linr"
                      },
                      "borderWidth" : {
                        "type" : "double",
                        "defaultValue" : 5.0,
                        "interp" : "linr"
                      },
                      "flipOnXAxis" : {
                        "type" : "double",
                        "defaultValue" : 0.0,
                        "interp" : "linr"
                      },
                      "flipOnYAxis" : {
                        "type" : "double",
                        "defaultValue" : 0.0,
                        "interp" : "linr"
                      },
                      "height" : {
                        "type" : "double",
                        "defaultValue" : 270.0,
                        "interp" : "linr"
                      },
                      "width" : {
                        "type" : "double",
                        "defaultValue" : 480.0,
                        "interp" : "linr"
                      },
                      "filename" : "C:\\Program Files\\TechSmith\\Camtasia 2019\\Media\\Studio\\Callouts\\anim_drawnoval.svg",
                      "name" : "",
                      "xmlContent" : "ï»¿<?xml version=\"1.0\" encoding=\"utf-8\"?>\n<!-- Generator: Adobe Illustrator 13.0.2, SVG Export Plug-In . SVG Version: 6.00 Build 14948)  -->\n<!DOCTYPE svg PUBLIC \"-//W3C//DTD SVG 1.1//EN\" \"http://www.w3.org/Graphics/SVG/1.1/DTD/svg11.dtd\">\n<svg version=\"1.1\" id=\"Layer_1\" xmlns=\"http://www.w3.org/2000/svg\" xmlns:xlink=\"http://www.w3.org/1999/xlink\" x=\"0px\" y=\"0px\"\n\t width=\"299.75px\" height=\"214.496px\" viewBox=\"0 0 299.75 214.496\" enable-background=\"new 0 0 299.75 214.496\"\n\t xml:space=\"preserve\">\n<path fill=\"none\" d=\"M142.383,0.35c-26-3-55,14-74,24c-69,38-104,133-16,172c54,24,119,23,175,4c40-13,83-43,70-91\n\tc-25-95-141-116-224-99\"/>\n</svg>\n"
                    },
                    "attributes" : {
                      "autoRotateText" : true
                    },
                    "parameters" : {
                      "translation0" : {
                        "type" : "double",
                        "defaultValue" : 103.207547169677,
                        "interp" : "eioe"
                      },
                      "translation1" : {
                        "type" : "double",
                        "defaultValue" : 415.094339622138,
                        "interp" : "eioe"
                      },
                      "scale0" : {
                        "type" : "double",
                        "defaultValue" : 0.430031446540811,
                        "interp" : "eioe"
                      },
                      "scale1" : {
                        "type" : "double",
                        "defaultValue" : 0.608665269044143,
                        "interp" : "eioe"
                      }
                    },
                    "leftEdgeMods" : [
                      {
                        "group" : "DrawPercentageFade",
                        "duration" : 30,
                        "parameters" : [
                          {
                            "name" : "DrawTime",
                              "func" : "FadeInFunc"
                            }
                        ]
                      }
                    ],
                    "effects" : [

                    ],
                    "start" : 540,
                    "duration" : 101,
                    "mediaStart" : 0,
                    "mediaDuration" : 101,
                    "scalar" : 1,
                    "metadata" : {
                      "clipSpeedAttribute" : false,
                      "default-scale0" : 1.0,
                      "default-scale1" : 1.0,
                      "default-stroke-color-blue" : 0.0,
                      "default-stroke-color-green" : 0.0,
                      "default-stroke-color-red" : 1.0,
                      "default-translation0" : 0.0,
                      "default-translation1" : 0.0
                    },
                    "animationTracks" : {

                    }
                  },
                  {
                    "id" : 39,
                    "_type" : "Callout",
                    "def" : {
                      "kind" : "remix",
                      "shape" : "text-rectangle",
                      "style" : "basic",
                      "fill-color-blue" : 1.0,
                      "fill-color-green" : 1.0,
                      "fill-color-opacity" : 1.0,
                      "fill-color-red" : 1.0,
                      "height" : 61.3207547169232,
                      "line-spacing" : 0.0,
                      "stroke-color-blue" : 1.0,
                      "stroke-color-green" : 1.0,
                      "stroke-color-opacity" : 1.0,
                      "stroke-color-red" : 1.0,
                      "stroke-width" : 2.0,
                      "tail-x" : -26.1792452830405,
                      "tail-y" : -64.3396226415384,
                      "width" : 1444.81132075426,
                      "word-wrap" : 1.0,
                      "fill-style" : "solid",
                      "horizontal-alignment" : "center",
                      "resize-behavior" : "resizeText",
                      "stroke-style" : "solid",
                      "text" : "Check out github.com/bhavyaghai/WordBias for more",
                      "vertical-alignment" : "center",
                      "font" : {
                        "color-blue" : 0.266666666666667,
                        "color-green" : 0.231372549019608,
                        "color-opacity" : 1.0,
                        "color-red" : 0.184313725490196,
                        "size" : 64.0,
                        "tracking" : 0.0,
                        "name" : "Montserrat",
                        "weight" : "Regular"
                      },
                      "textAttributes" : {
                        "type" : "textAttributeList",
                        "keyframes" : [
                          {
                            "endTime" : 0,
                            "time" : 0,
                            "value" : [{"name":"fontWeight","rangeEnd":49,"rangeStart":0,"value":400,"valueType":"int"},{"name":"strikethrough","rangeEnd":49,"rangeStart":0,"value":0,"valueType":"int"},{"name":"kerning","rangeEnd":49,"rangeStart":0,"value":0,"valueType":"double"},{"name":"fontItalic","rangeEnd":49,"rangeStart":0,"value":0,"valueType":"int"},{"name":"underline","rangeEnd":49,"rangeStart":0,"value":0,"valueType":"int"},{"name":"fontSize","rangeEnd":49,"rangeStart":0,"value":51,"valueType":"double"},{"name":"fgColor","rangeEnd":49,"rangeStart":0,"value":"(0,0,0,255)","valueType":"color"},{"name":"fontName","rangeEnd":49,"rangeStart":0,"value":"Montserrat","valueType":"string"}],
                            "duration" : 0
                          }
                        ]
                      }
                    },
                    "attributes" : {
                      "autoRotateText" : true
                    },
                    "parameters" : {
                      "translation0" : 37.735849056694,
                      "translation1" : -83.9622641509924
                    },
                    "effects" : [

                    ],
                    "start" : 918,
                    "duration" : 72,
                    "mediaStart" : 0,
                    "mediaDuration" : 72,
                    "scalar" : 1,
                    "metadata" : {
                      "clipSpeedAttribute" : false,
                      "default-HAlign" : "center",
                      "default-LineSpace" : 0.0,
                      "default-VAlign" : "center",
                      "default-stroke-color-blue" : 0.56078431372549,
                      "default-stroke-color-green" : 0.686274509803922,
                      "default-stroke-color-red" : 0.0196078431372549,
                      "default-text-attributes" : null,
                      "default-translation0" : 0.0,
                      "default-translation1" : 0.0
                    },
                    "animationTracks" : {

                    }
                  }
                ]
              },
              {
                "trackIndex" : 6,
                "medias" : [
                  {
                    "id" : 40,
                    "_type" : "Callout",
                    "def" : {
                      "kind" : "TypeWinSVG",
                      "shape" : "",
                      "style" : "",
                      "DrawTime" : {
                        "type" : "double",
                        "defaultValue" : 1.0,
                        "interp" : "linr"
                      },
                      "borderColorBlue" : {
                        "type" : "double",
                        "defaultValue" : 0.0,
                        "interp" : "linr"
                      },
                      "borderColorGreen" : {
                        "type" : "double",
                        "defaultValue" : 0.0,
                        "interp" : "linr"
                      },
                      "borderColorRed" : {
                        "type" : "double",
                        "defaultValue" : 0.0,
                        "interp" : "linr"
                      },
                      "borderWidth" : {
                        "type" : "double",
                        "defaultValue" : 4.0,
                        "interp" : "linr"
                      },
                      "flipOnXAxis" : {
                        "type" : "double",
                        "defaultValue" : 0.0,
                        "interp" : "linr"
                      },
                      "flipOnYAxis" : {
                        "type" : "double",
                        "defaultValue" : 1.0,
                        "interp" : "linr"
                      },
                      "height" : {
                        "type" : "double",
                        "defaultValue" : 270.0,
                        "interp" : "linr"
                      },
                      "width" : {
                        "type" : "double",
                        "defaultValue" : 480.0,
                        "interp" : "linr"
                      },
                      "filename" : "C:\\Program Files\\TechSmith\\Camtasia 2019\\Media\\Studio\\Callouts\\anim_straightline.svg",
                      "name" : "",
                      "xmlContent" : "ï»¿<?xml version=\"1.0\" encoding=\"utf-8\"?>\n<!DOCTYPE svg PUBLIC \"-//W3C//DTD SVG 1.1//EN\" \"http://www.w3.org/Graphics/SVG/1.1/DTD/svg11.dtd\">\n<svg version=\"1.1\" id=\"Layer_1\" xmlns=\"http://www.w3.org/2000/svg\" xmlns:xlink=\"http://www.w3.org/1999/xlink\" x=\"0px\" y=\"0px\"\n\t width=\"128px\" height=\"109px\" viewBox=\"0 0 128 109\" enable-background=\"new 0 0 128 109\" xml:space=\"preserve\">\n<path fill=\"none\" d=\"M 0 50 L 128 49\"/>\n</svg>\n"
                    },
                    "attributes" : {
                      "autoRotateText" : true
                    },
                    "parameters" : {
                      "translation0" : {
                        "type" : "double",
                        "defaultValue" : 310.207547169913,
                        "interp" : "eioe"
                      },
                      "translation1" : {
                        "type" : "double",
                        "defaultValue" : -18.8679245286429,
                        "interp" : "eioe"
                      },
                      "scale0" : {
                        "type" : "double",
                        "defaultValue" : -0.0062893081755964,
                        "interp" : "eioe"
                      },
                      "scale1" : {
                        "type" : "double",
                        "defaultValue" : 3.41788958770031,
                        "interp" : "eioe"
                      }
                    },
                    "leftEdgeMods" : [
                      {
                        "group" : "DrawPercentageFade",
                        "duration" : 6,
                        "parameters" : [
                          {
                            "name" : "DrawTime",
                              "func" : "FadeInFunc"
                            }
                        ]
                      }
                    ],
                    "effects" : [

                    ],
                    "start" : 145,
                    "duration" : 150,
                    "mediaStart" : 0,
                    "mediaDuration" : 150,
                    "scalar" : 1,
                    "metadata" : {
                      "clipSpeedAttribute" : false,
                      "default-legacy-drawtime-duration" : 1.0,
                      "default-legacy-flip-y" : 0.0,
                      "default-scale0" : 1.0,
                      "default-scale1" : 1.0,
                      "default-stroke-color-blue" : 0.0,
                      "default-stroke-color-green" : 0.0,
                      "default-stroke-color-red" : 1.0,
                      "default-stroke-width" : 5.0,
                      "default-translation0" : 0.0,
                      "default-translation1" : 0.0
                    },
                    "animationTracks" : {

                    }
                  },
                  {
                    "id" : 41,
                    "_type" : "Callout",
                    "def" : {
                      "kind" : "TypeWinSVG",
                      "shape" : "",
                      "style" : "",
                      "DrawTime" : {
                        "type" : "double",
                        "defaultValue" : 1.0,
                        "interp" : "linr"
                      },
                      "borderColorBlue" : {
                        "type" : "double",
                        "defaultValue" : 0.870588235294118,
                        "interp" : "linr"
                      },
                      "borderColorGreen" : {
                        "type" : "double",
                        "defaultValue" : 0.341176470588235,
                        "interp" : "linr"
                      },
                      "borderColorRed" : {
                        "type" : "double",
                        "defaultValue" : 0.105882352941176,
                        "interp" : "linr"
                      },
                      "borderWidth" : {
                        "type" : "double",
                        "defaultValue" : 5.0,
                        "interp" : "linr"
                      },
                      "flipOnXAxis" : {
                        "type" : "double",
                        "defaultValue" : 0.0,
                        "interp" : "linr"
                      },
                      "flipOnYAxis" : {
                        "type" : "double",
                        "defaultValue" : 0.0,
                        "interp" : "linr"
                      },
                      "height" : {
                        "type" : "double",
                        "defaultValue" : 270.0,
                        "interp" : "linr"
                      },
                      "width" : {
                        "type" : "double",
                        "defaultValue" : 480.0,
                        "interp" : "linr"
                      },
                      "filename" : "C:\\Program Files\\TechSmith\\Camtasia 2019\\Media\\Studio\\Callouts\\anim_drawnoval.svg",
                      "name" : "",
                      "xmlContent" : "ï»¿<?xml version=\"1.0\" encoding=\"utf-8\"?>\n<!-- Generator: Adobe Illustrator 13.0.2, SVG Export Plug-In . SVG Version: 6.00 Build 14948)  -->\n<!DOCTYPE svg PUBLIC \"-//W3C//DTD SVG 1.1//EN\" \"http://www.w3.org/Graphics/SVG/1.1/DTD/svg11.dtd\">\n<svg version=\"1.1\" id=\"Layer_1\" xmlns=\"http://www.w3.org/2000/svg\" xmlns:xlink=\"http://www.w3.org/1999/xlink\" x=\"0px\" y=\"0px\"\n\t width=\"299.75px\" height=\"214.496px\" viewBox=\"0 0 299.75 214.496\" enable-background=\"new 0 0 299.75 214.496\"\n\t xml:space=\"preserve\">\n<path fill=\"none\" d=\"M142.383,0.35c-26-3-55,14-74,24c-69,38-104,133-16,172c54,24,119,23,175,4c40-13,83-43,70-91\n\tc-25-95-141-116-224-99\"/>\n</svg>\n"
                    },
                    "attributes" : {
                      "autoRotateText" : true
                    },
                    "parameters" : {
                      "translation0" : {
                        "type" : "double",
                        "defaultValue" : 316.226415094003,
                        "interp" : "eioe"
                      },
                      "translation1" : {
                        "type" : "double",
                        "defaultValue" : 444.858490565531,
                        "interp" : "eioe"
                      },
                      "scale0" : {
                        "type" : "double",
                        "defaultValue" : 0.308176100627761,
                        "interp" : "eioe"
                      },
                      "scale1" : {
                        "type" : "double",
                        "defaultValue" : 0.388190076870494,
                        "interp" : "eioe"
                      }
                    },
                    "leftEdgeMods" : [
                      {
                        "group" : "DrawPercentageFade",
                        "duration" : 30,
                        "parameters" : [
                          {
                            "name" : "DrawTime",
                              "func" : "FadeInFunc"
                            }
                        ]
                      }
                    ],
                    "effects" : [

                    ],
                    "start" : 576,
                    "duration" : 65,
                    "mediaStart" : 0,
                    "mediaDuration" : 65,
                    "scalar" : 1,
                    "metadata" : {
                      "clipSpeedAttribute" : false,
                      "default-scale0" : 1.0,
                      "default-scale1" : 1.0,
                      "default-stroke-color-blue" : 0.0,
                      "default-stroke-color-green" : 0.0,
                      "default-stroke-color-red" : 1.0,
                      "default-translation0" : 0.0,
                      "default-translation1" : 0.0
                    },
                    "animationTracks" : {

                    }
                  }
                ]
              },
              {
                "trackIndex" : 7,
                "medias" : [
                  {
                    "id" : 42,
                    "_type" : "Callout",
                    "def" : {
                      "kind" : "TypeWinSVG",
                      "shape" : "",
                      "style" : "",
                      "DrawTime" : {
                        "type" : "double",
                        "defaultValue" : 1.0,
                        "interp" : "linr"
                      },
                      "borderColorBlue" : {
                        "type" : "double",
                        "defaultValue" : 0.0,
                        "interp" : "linr"
                      },
                      "borderColorGreen" : {
                        "type" : "double",
                        "defaultValue" : 0.0,
                        "interp" : "linr"
                      },
                      "borderColorRed" : {
                        "type" : "double",
                        "defaultValue" : 0.0,
                        "interp" : "linr"
                      },
                      "borderWidth" : {
                        "type" : "double",
                        "defaultValue" : 4.0,
                        "interp" : "linr"
                      },
                      "flipOnXAxis" : {
                        "type" : "double",
                        "defaultValue" : 0.0,
                        "interp" : "linr"
                      },
                      "flipOnYAxis" : {
                        "type" : "double",
                        "defaultValue" : 1.0,
                        "interp" : "linr"
                      },
                      "height" : {
                        "type" : "double",
                        "defaultValue" : 270.0,
                        "interp" : "linr"
                      },
                      "width" : {
                        "type" : "double",
                        "defaultValue" : 480.0,
                        "interp" : "linr"
                      },
                      "filename" : "C:\\Program Files\\TechSmith\\Camtasia 2019\\Media\\Studio\\Callouts\\anim_straightline.svg",
                      "name" : "",
                      "xmlContent" : "ï»¿<?xml version=\"1.0\" encoding=\"utf-8\"?>\n<!DOCTYPE svg PUBLIC \"-//W3C//DTD SVG 1.1//EN\" \"http://www.w3.org/Graphics/SVG/1.1/DTD/svg11.dtd\">\n<svg version=\"1.1\" id=\"Layer_1\" xmlns=\"http://www.w3.org/2000/svg\" xmlns:xlink=\"http://www.w3.org/1999/xlink\" x=\"0px\" y=\"0px\"\n\t width=\"128px\" height=\"109px\" viewBox=\"0 0 128 109\" enable-background=\"new 0 0 128 109\" xml:space=\"preserve\">\n<path fill=\"none\" d=\"M 0 50 L 128 49\"/>\n</svg>\n"
                    },
                    "attributes" : {
                      "autoRotateText" : true
                    },
                    "parameters" : {
                      "translation0" : {
                        "type" : "double",
                        "defaultValue" : 509.981132075807,
                        "interp" : "eioe"
                      },
                      "translation1" : {
                        "type" : "double",
                        "defaultValue" : -18.8679245286429,
                        "interp" : "eioe"
                      },
                      "scale0" : {
                        "type" : "double",
                        "defaultValue" : -0.0062893081755964,
                        "interp" : "eioe"
                      },
                      "scale1" : {
                        "type" : "double",
                        "defaultValue" : 3.41788958770031,
                        "interp" : "eioe"
                      }
                    },
                    "leftEdgeMods" : [
                      {
                        "group" : "DrawPercentageFade",
                        "duration" : 6,
                        "parameters" : [
                          {
                            "name" : "DrawTime",
                              "func" : "FadeInFunc"
                            }
                        ]
                      }
                    ],
                    "effects" : [

                    ],
                    "start" : 145,
                    "duration" : 150,
                    "mediaStart" : 0,
                    "mediaDuration" : 150,
                    "scalar" : 1,
                    "metadata" : {
                      "clipSpeedAttribute" : false,
                      "default-legacy-drawtime-duration" : 1.0,
                      "default-legacy-flip-y" : 0.0,
                      "default-scale0" : 1.0,
                      "default-scale1" : 1.0,
                      "default-stroke-color-blue" : 0.0,
                      "default-stroke-color-green" : 0.0,
                      "default-stroke-color-red" : 1.0,
                      "default-stroke-width" : 5.0,
                      "default-translation0" : 0.0,
                      "default-translation1" : 0.0
                    },
                    "animationTracks" : {

                    }
                  },
                  {
                    "id" : 43,
                    "_type" : "Callout",
                    "def" : {
                      "kind" : "TypeWinSVG",
                      "shape" : "",
                      "style" : "",
                      "DrawTime" : {
                        "type" : "double",
                        "defaultValue" : 1.0,
                        "interp" : "linr"
                      },
                      "borderColorBlue" : {
                        "type" : "double",
                        "defaultValue" : 0.870588235294118,
                        "interp" : "linr"
                      },
                      "borderColorGreen" : {
                        "type" : "double",
                        "defaultValue" : 0.341176470588235,
                        "interp" : "linr"
                      },
                      "borderColorRed" : {
                        "type" : "double",
                        "defaultValue" : 0.105882352941176,
                        "interp" : "linr"
                      },
                      "borderWidth" : {
                        "type" : "double",
                        "defaultValue" : 5.0,
                        "interp" : "linr"
                      },
                      "flipOnXAxis" : {
                        "type" : "double",
                        "defaultValue" : 0.0,
                        "interp" : "linr"
                      },
                      "flipOnYAxis" : {
                        "type" : "double",
                        "defaultValue" : 0.0,
                        "interp" : "linr"
                      },
                      "height" : {
                        "type" : "double",
                        "defaultValue" : 270.0,
                        "interp" : "linr"
                      },
                      "width" : {
                        "type" : "double",
                        "defaultValue" : 480.0,
                        "interp" : "linr"
                      },
                      "filename" : "C:\\Program Files\\TechSmith\\Camtasia 2019\\Media\\Studio\\Callouts\\anim_drawnoval.svg",
                      "name" : "",
                      "xmlContent" : "ï»¿<?xml version=\"1.0\" encoding=\"utf-8\"?>\n<!-- Generator: Adobe Illustrator 13.0.2, SVG Export Plug-In . SVG Version: 6.00 Build 14948)  -->\n<!DOCTYPE svg PUBLIC \"-//W3C//DTD SVG 1.1//EN\" \"http://www.w3.org/Graphics/SVG/1.1/DTD/svg11.dtd\">\n<svg version=\"1.1\" id=\"Layer_1\" xmlns=\"http://www.w3.org/2000/svg\" xmlns:xlink=\"http://www.w3.org/1999/xlink\" x=\"0px\" y=\"0px\"\n\t width=\"299.75px\" height=\"214.496px\" viewBox=\"0 0 299.75 214.496\" enable-background=\"new 0 0 299.75 214.496\"\n\t xml:space=\"preserve\">\n<path fill=\"none\" d=\"M142.383,0.35c-26-3-55,14-74,24c-69,38-104,133-16,172c54,24,119,23,175,4c40-13,83-43,70-91\n\tc-25-95-141-116-224-99\"/>\n</svg>\n"
                    },
                    "attributes" : {
                      "autoRotateText" : true
                    },
                    "parameters" : {
                      "translation0" : {
                        "type" : "double",
                        "defaultValue" : 504.905660377181,
                        "interp" : "eioe"
                      },
                      "translation1" : {
                        "type" : "double",
                        "defaultValue" : 444.858490565523,
                        "interp" : "eioe"
                      },
                      "scale0" : {
                        "type" : "double",
                        "defaultValue" : 0.308176100627761,
                        "interp" : "eioe"
                      },
                      "scale1" : {
                        "type" : "double",
                        "defaultValue" : 0.388190076870494,
                        "interp" : "eioe"
                      }
                    },
                    "leftEdgeMods" : [
                      {
                        "group" : "DrawPercentageFade",
                        "duration" : 30,
                        "parameters" : [
                          {
                            "name" : "DrawTime",
                              "func" : "FadeInFunc"
                            }
                        ]
                      }
                    ],
                    "effects" : [

                    ],
                    "start" : 589,
                    "duration" : 52,
                    "mediaStart" : 13,
                    "mediaDuration" : 52,
                    "scalar" : 1,
                    "metadata" : {
                      "clipSpeedAttribute" : false,
                      "default-scale0" : 1.0,
                      "default-scale1" : 1.0,
                      "default-stroke-color-blue" : 0.0,
                      "default-stroke-color-green" : 0.0,
                      "default-stroke-color-red" : 1.0,
                      "default-translation0" : 0.0,
                      "default-translation1" : 0.0
                    },
                    "animationTracks" : {

                    }
                  }
                ]
              },
              {
                "trackIndex" : 8,
                "medias" : [
                  {
                    "id" : 44,
                    "_type" : "Caption",
                    "allowTrimOut" : 1,
                    "maxMediaDuration" : 9.22337e+18,
                    "parameters" : {
                      "captionData" : {
                        "type" : "caption",
                        "keyframes" : [
                          {
                            "endTime" : -9999999,
                            "time" : -9999999,
                            "value" : { "text" : "This is the visual interface of WordBias", "textAttributes" : null },
                            "duration" : 0
                          },
                          {
                            "endTime" : 84,
                            "time" : 84,
                            "value" : { "text" : "Here, each axis represents a sensitive attribute like gender, race, etc.", "textAttributes" : null },
                            "duration" : 0
                          },
                          {
                            "endTime" : 235,
                            "time" : 235,
                            "value" : { "text" : "and each blue line represents a word.", "textAttributes" : null },
                            "duration" : 0
                          },
                          {
                            "endTime" : 314,
                            "time" : 314,
                            "value" : { "text" : "On hovering over a word like 'nuns', we can see how it associates with", "textAttributes" : null },
                            "duration" : 0
                          },
                          {
                            "endTime" : 432,
                            "time" : 432,
                            "value" : { "text" : "different subgroups like 'Females', 'Christianity', 'White' (race), 'Old' and 'Poor' subgroups.", "textAttributes" : null },
                            "duration" : 0
                          },
                          {
                            "endTime" : 581,
                            "time" : 581,
                            "value" : { "text" : "Similarly, we can brush over multiple subgroups like 'Males' and 'Islam' ", "textAttributes" : null },
                            "duration" : 0
                          },
                          {
                            "endTime" : 716,
                            "time" : 716,
                            "value" : { "text" : "to obtain words which associate with the intersectional group 'Muslim Males' (as per Word Embedding).", "textAttributes" : null },
                            "duration" : 0
                          }
                        ]
                      }
                    },
                    "effects" : [

                    ],
                    "start" : 60,
                    "duration" : 852,
                    "mediaStart" : 0,
                    "mediaDuration" : 852,
                    "scalar" : 1,
                    "metadata" : {
                      "clipSpeedAttribute" : false
                    },
                    "animationTracks" : {

                    }
                  }
                ]
              },
              {
                "trackIndex" : 9,
                "medias" : [
                ]
              }
            ]
          }
        }
      ]
    },
    "trackAttributes" : [
      {
        "ident" : "",
        "audioMuted" : false,
        "videoHidden" : false,
        "magnetic" : false,
        "metadata" : {
          "IsLocked" : "False",
          "WinTrackHeight" : "56"
        }
      },
      {
        "ident" : "",
        "audioMuted" : false,
        "videoHidden" : false,
        "magnetic" : false,
        "metadata" : {
          "IsLocked" : "False",
          "WinTrackHeight" : "56"
        }
      },
      {
        "ident" : "",
        "audioMuted" : false,
        "videoHidden" : false,
        "magnetic" : false,
        "metadata" : {
          "IsLocked" : "False",
          "WinTrackHeight" : "56"
        }
      },
      {
        "ident" : "",
        "audioMuted" : false,
        "videoHidden" : false,
        "magnetic" : false,
        "metadata" : {
          "IsLocked" : "False",
          "WinTrackHeight" : "56"
        }
      },
      {
        "ident" : "",
        "audioMuted" : false,
        "videoHidden" : false,
        "magnetic" : false,
        "metadata" : {
          "IsLocked" : "False",
          "WinTrackHeight" : "56"
        }
      },
      {
        "ident" : "",
        "audioMuted" : false,
        "videoHidden" : false,
        "magnetic" : false,
        "metadata" : {
          "IsLocked" : "False",
          "WinTrackHeight" : "56"
        }
      },
      {
        "ident" : "",
        "audioMuted" : false,
        "videoHidden" : false,
        "magnetic" : false,
        "metadata" : {
          "IsLocked" : "False",
          "WinTrackHeight" : "56"
        }
      },
      {
        "ident" : "",
        "audioMuted" : false,
        "videoHidden" : false,
        "magnetic" : false,
        "metadata" : {
          "IsLocked" : "False",
          "WinTrackHeight" : "56"
        }
      },
      {
        "ident" : "",
        "audioMuted" : false,
        "videoHidden" : false,
        "magnetic" : false,
        "metadata" : {
          "IsLocked" : "False",
          "WinTrackHeight" : "56"
        }
      },
      {
        "ident" : "",
        "audioMuted" : false,
        "videoHidden" : false,
        "magnetic" : false,
        "metadata" : {
          "IsLocked" : "False",
          "WinTrackHeight" : "56"
        }
      }
    ],
    "captionAttributes" : {
      "enabled" : true,
      "fontName" : "Arial",
      "fontSize" : 32,
      "backgroundColor" : [ 255, 255, 255, 28],
      "foregroundColor" : [ 0, 0, 0, 255],
      "lang" : "en",
      "alignment" : 2,
      "defaultFontSize" : false,
      "opacity" : 0.5,
      "backgroundEnabled" : true,
      "backgroundOnlyAroundText" : true
    },
    "backgroundColor" : [ 0, 0, 0, 255]
  },
  "metadata" : {
    "AutoSaveFile" : "",
    "CanvasZoom" : 50,
    "Date" : "2021-03-03 07:58:51 PM",
    "Fit" : 1,
    "IsAutoSave" : "0",
    "Language" : "ENU",
    "ProfileName" : "MP4 only (up to 1080p)",
    "ProjectDimensionsChanged" : "1",
    "Title" : "wordbias_video",
    "audioNarrationNotes" : "",
    "calloutStyle" : "All",
    "canvasDetached" : "False",
    "canvasPositionHeight" : "0",
    "canvasPositionLeft" : "0",
    "canvasPositionTop" : "0",
    "canvasPositionWidth" : "0"
  }
}
